<svg xmlns="http://www.w3.org/2000/svg" viewBox="-.5 -.5 446.02 410.9">
  <path fill="none" stroke="#000" stroke-linecap="round" stroke-linejoin="round" stroke-miterlimit="10" d="M28.89 155.28s0 0 0 0m0 0s0 0 0 0M11.57 181.3c7.87-9.02 15.05-16.12 25.58-29.43M11.57 181.3c8.63-11.34 19.26-22.87 25.58-29.43M9.34 189.96c8.08-7.4 14.14-16.8 32.14-36.98M9.34 189.96c8.87-9.2 16.65-18.85 32.14-36.98M7.76 197.87c11.78-15.17 28.22-32.26 40.02-46.04M7.76 197.87a1307.27 1307.27 0 0 1 40.02-46.04M2.9 209.55c8.34-13.95 22.48-25.2 51.17-58.87M2.9 209.55c19.09-22.51 40-46.06 51.17-58.87m-49.46 63c12.08-14.31 24.2-27.5 55.1-63.4m-55.1 63.4a1149.65 1149.65 0 0 0 55.1-63.4m-54.03 68.3c23.75-25.57 45.52-54.31 60.35-69.43M5.67 218.57c19.74-23.1 38.29-46.27 60.35-69.43M7.37 222.7c16.76-19.72 35.08-37.22 64.95-74.72M7.37 222.7c18.19-20.37 36.19-42.4 64.95-74.72M9.08 226.84c18.62-19.41 33.58-38.91 67.57-77.73M9.08 226.84c20.19-25.82 42.24-49.77 67.57-77.73m-66.52 82.62c25.54-31.5 50.98-59.17 70.2-80.75m-70.2 80.75c16.52-17.98 32.68-37.23 70.2-80.75m-68.5 84.88c19.33-24.76 40.9-48.35 72.83-83.77m-72.82 83.77c29.53-32.4 58-66 72.82-83.77m-71.12 87.9c18.83-21.37 39.2-40.73 75.45-86.8M13.54 240c25.3-28.71 49.09-57.36 75.45-86.8m-72.43 89.43c20.07-22.78 37.46-44.95 76.1-87.55m-76.1 87.55c23.15-24.42 44.4-51.15 76.1-87.55m-73.08 90.17C46.07 215.3 71.63 187.95 97 156.2m-77.42 89.05C35.46 226.73 51.78 207 97 156.19m-74.4 91.68c25.22-30.38 50.62-57.97 78.73-90.57M22.6 247.87c26.08-29.1 49.7-57.47 78.73-90.57m-76.37 93.95c19.77-24.94 41.19-49.01 78.73-90.57m-78.73 90.57c20.46-22.86 40.9-46.65 78.73-90.57m-75.71 93.19c21.87-22.55 41.84-50.25 78.73-90.56m-78.73 90.56c24.53-29.12 50.68-58.3 78.73-90.56M31 256.5c20.7-25.76 44.85-49.45 78.07-89.81M31 256.49c24.19-29.83 49.52-58.07 78.07-89.8m-75.05 92.43c25.12-25.82 48.12-52.32 78.07-89.81m-78.07 89.8c22.52-26.7 47.5-54.47 78.07-89.8m-73.74 90.93c28.1-32.7 54.08-63.03 76.1-87.55m-76.1 87.55c28.7-34.1 57.92-67.35 76.1-87.55m-71.77 88.66c20.1-25.61 39.07-48.16 74.79-86.04m-74.8 86.04c14.53-17.1 29.57-35.4 74.8-86.04M47 262.47c16.8-23 36.14-44.31 72.83-83.78M47 262.47c20.82-22.41 39.62-44.23 72.83-83.78m-68.5 84.89c18.5-19.14 35.09-40.13 71.5-82.26m-71.5 82.26c25.45-26.5 49.09-54.34 71.5-82.26m-67.82 84.13c22.58-28.63 47.34-53.65 68.89-79.25M55 265.45a2114.58 2114.58 0 0 0 68.9-79.25m-64.56 80.36c20.13-23.47 40.8-50.95 65.6-75.47m-65.6 75.47a1788.52 1788.52 0 0 0 65.6-75.47m-61.27 76.59c19.17-23.68 36.79-44.9 62.33-71.7m-62.33 71.7c19.9-22.12 40.58-44.61 62.33-71.7m-55.37 69.8c11.4-14.62 24.76-27.48 55.76-64.16m-55.76 64.16c21.83-25.23 43.77-50.41 55.76-64.16m-48.81 62.25c14.65-16.82 27.15-34.21 48.55-55.85m-48.55 55.85c14.63-17.03 27.6-31.61 48.55-55.85m-41.6 53.95c10.89-13.1 22.16-25.8 38.06-43.78m-38.05 43.78c9.75-9.77 19.14-20.54 38.05-43.78m-31.75 42.63c7.53-9.07 18.6-20.3 28.2-32.45m-28.2 32.45c9.6-9.6 17.08-20.85 28.2-32.45" opacity=".25" pointer-events="all"/>
  <path fill="none" stroke="#000" stroke-linecap="round" stroke-linejoin="round" stroke-miterlimit="10" d="M39.1 151.17c8.26-4.47 20.88-5.9 30.84-5.14 9.96.76 20.66 4.17 28.95 9.67 8.28 5.49 16.29 14.6 20.76 23.33A56.68 56.68 0 0 1 125.7 208c-.66 9.76-4.87 21.06-10.05 29.6-5.2 8.55-12.4 16.74-21.06 21.66-8.67 4.92-20.77 7.92-30.95 7.87-10.2-.06-21.64-3.5-30.15-8.2a57.9 57.9 0 0 1-20.94-19.96C7.33 230.66 2.72 218.94 2.09 209c-.63-9.92 2.17-20.55 6.69-29.56 4.52-9.02 14.4-19.22 20.43-24.55 6.04-5.32 11.9-6.35 15.77-7.41 3.86-1.07 6.99.02 7.43 1.02m40.07 4.39a45.52 45.52 0 0 1 22.1 17.33c5.3 7.88 8.9 20.08 9.7 29.9.8 9.84-1.18 20.04-4.88 29.08-3.7 9.05-9.36 18.9-17.33 25.19-7.97 6.29-20.46 11.37-30.48 12.54-10.02 1.18-20.74-1.95-29.65-5.48-8.9-3.53-17.46-8.48-23.78-15.7-6.31-7.21-12.05-17.87-14.1-27.6a61.81 61.81 0 0 1 1.8-30.8c3.18-9.65 9.72-20.21 17.2-27.1 7.48-6.9 17.96-12.03 27.67-14.25 9.72-2.21 24.16-.07 30.64.96s6.88 4.04 8.25 5.23c1.37 1.19.2.93-.03 1.92" opacity=".25" pointer-events="all"/>
  <path fill="none" stroke="#b85450" stroke-linecap="round" stroke-linejoin="round" stroke-miterlimit="10" d="M37.1 148.17c8.26-4.47 20.88-5.9 30.84-5.14 9.96.76 20.66 4.17 28.95 9.67 8.28 5.49 16.29 14.6 20.76 23.33A56.68 56.68 0 0 1 123.7 205c-.66 9.76-4.87 21.06-10.05 29.6-5.2 8.55-12.4 16.74-21.06 21.66-8.67 4.92-20.77 7.92-30.95 7.87-10.2-.06-21.64-3.5-30.15-8.2a57.9 57.9 0 0 1-20.94-19.96C5.33 227.66.72 215.94.09 206c-.63-9.92 2.17-20.55 6.69-29.56 4.52-9.02 14.4-19.22 20.43-24.55 6.04-5.32 11.9-6.35 15.77-7.41 3.86-1.07 6.99.02 7.43 1.02m40.07 4.39a45.52 45.52 0 0 1 22.1 17.33c5.3 7.88 8.9 20.08 9.7 29.9.8 9.84-1.18 20.04-4.88 29.08-3.7 9.05-9.36 18.9-17.33 25.19-7.97 6.29-20.46 11.37-30.48 12.54-10.02 1.18-20.74-1.95-29.65-5.48-8.9-3.53-17.46-8.48-23.78-15.7-6.31-7.21-12.05-17.87-14.1-27.6a61.81 61.81 0 0 1 1.8-30.8c3.18-9.65 9.72-20.21 17.2-27.1 7.48-6.9 17.96-12.03 27.67-14.25 9.72-2.21 24.16-.07 30.64.96s6.88 4.04 8.25 5.23c1.37 1.19.2.93-.03 1.92" pointer-events="all"/>
  <text x="59.5" y="204.5" fill="#f59" font-family="'Montserrat SemiBold'" font-size="15" text-anchor="middle" transform="translate(1.88 3.07)">Matthew</text>
  <path fill="none" stroke="#000" stroke-linecap="round" stroke-linejoin="round" stroke-miterlimit="10" d="M182.35 115.08s0 0 0 0m0 0s0 0 0 0m-16.01-24.51c8.27 9.48 16.9 15.94 24.28 27.93m-24.28-27.93c7.4 8.5 17.48 18.6 24.28 27.93m-25.85-35.84c11.26 15.18 22.7 28.74 34.77 40m-34.77-40a699.66 699.66 0 0 1 34.77 40m-36.34-47.9c12.12 16.84 26 30.12 44.6 51.32m-44.6-51.32c13.23 15.09 26.28 29.5 44.6 51.32m-46.18-59.23c17.67 21.68 36.27 43.4 51.18 58.87m-51.18-58.87c17.23 19.74 31.6 38.44 51.18 58.87M160.7 59.7c12.68 14.04 24.85 26.64 57.08 65.66M160.7 59.7c14.7 17.94 30.27 34.32 57.07 65.66m-55.37-69.8c16.65 20.6 33.98 39.39 61.02 70.19m-61.02-70.2c21.4 25.77 43.9 49.45 61.02 70.2m-59.31-74.32c21.92 28.82 46.92 54.07 63.64 73.2m-63.64-73.2c21.74 24.76 42.1 48.24 63.64 73.2m-62.6-78.1c20.29 24.16 41.44 49.1 66.27 76.24m-66.26-76.23c12.49 14.84 26.66 31.12 66.26 76.23M166.88 42.4c23.17 29.55 50.28 60.52 68.88 79.24M166.88 42.4c22.59 26.04 43.2 49.37 68.88 79.24m-67.18-83.38c15.97 19.2 32.65 35.78 71.5 82.27m-71.5-82.27c25.64 29.7 52.45 60.96 71.5 82.27m-71.76-88.66c14.84 18.4 33.25 35.88 75.45 86.79m-75.45-86.8c21.2 24.18 41.34 48.42 75.45 86.8m-72.43-89.42c15.96 17.28 33.85 39.48 76.76 88.3m-76.76-88.3c22.67 27.2 46.38 53.14 76.76 88.3m-74.4-91.68c28.27 32.1 57.64 64.45 78.73 90.57M173.7 25.87c17.8 19.74 34.65 39.72 78.73 90.57m-75.71-93.2c29.32 28.8 56.25 61.7 78.73 90.57m-78.73-90.56c18.6 20.58 36.25 39.77 78.73 90.56m-75.71-93.2c17.6 17.36 35.12 36.15 78.73 90.58m-78.73-90.57c19.14 21.8 36.44 41.69 78.73 90.57m-75.71-93.2c31.53 35.74 62.45 69.15 78.07 89.82M182.76 18c21.94 23.69 42.62 48.33 78.07 89.8m-75.71-93.18c22.6 23.39 45.68 50.7 78.73 90.57m-78.73-90.57c25.24 30.44 52.4 60.3 78.73 90.57m-75.71-93.2c28.62 32.52 55.24 61.44 78.73 90.57M188.14 12c29.96 33.44 60.1 66.3 78.73 90.56m-75.71-93.2c20.29 21.67 35.78 41.45 78.73 90.58M191.16 9.37c31.59 34.54 61.6 70.45 78.73 90.57m-74.4-91.68c27.67 30.94 52.8 58.98 77.42 89.05M195.49 8.26c29 33.78 58.98 65.4 77.42 89.05M199.8 7.14c19.89 21.52 35.56 40.46 75.46 86.79m-75.45-86.8c16.52 18.8 33.93 38.03 75.45 86.8m-71.12-87.9c22.8 25.62 46.17 52.87 72.17 83.02M204.15 6.03c22.33 25.73 45.46 51.84 72.17 83.02M208.48 4.9c15.45 15.66 30.32 35.08 68.89 79.25M208.47 4.9c22.77 25.83 45.2 52.1 68.9 79.25M212.8 3.8c21.13 27.74 44.9 53.85 65.6 75.47M212.82 3.8c20.54 24.38 40.38 48.55 65.6 75.47m-61.26-76.6c20.6 24.46 39.48 45.8 62.32 71.7m-62.32-71.7c19.17 22.63 38.29 45.56 62.32 71.7m-58-72.8c18.19 24.2 37.2 44.7 59.05 67.92M221.48 1.57c20.1 21.77 39.12 45.69 59.04 67.92M229.09 4.23c18.2 23.44 39.56 43.42 51.83 59.62M229.09 4.23c14.56 15.28 29.2 32.32 51.83 59.62M236.7 6.89c11.27 12.73 21.79 28.66 41.33 47.54M236.7 6.89c8.87 10.22 18.36 20.64 41.33 47.54M244.3 9.55c12.06 10.99 21.35 25.69 30.18 34.7M244.3 9.56c7.1 7.28 13.27 15.12 30.18 34.7" opacity=".25" pointer-events="all"/>
  <path fill="none" stroke="#000" stroke-linecap="round" stroke-linejoin="round" stroke-miterlimit="10" d="M222.3 126.8c9.39.27 20.88-4.53 29.46-9.7 8.58-5.17 17.34-12.51 22.03-21.34 4.69-8.84 6.6-21.54 6.14-31.68a64.42 64.42 0 0 0-8.96-29.16 67.36 67.36 0 0 0-21.56-21.75c-8.51-5.26-19.57-9.4-29.51-9.8-9.93-.42-21.5 2.56-30.11 7.33-8.62 4.76-16.31 12.63-21.58 21.26-5.28 8.62-9.36 20.35-10.08 30.48-.72 10.14 1.7 21.54 5.76 30.34a59.26 59.26 0 0 0 18.6 22.47c7.86 5.75 21.58 9.93 28.48 12 6.9 2.09 10.45.53 12.95.47 2.5-.07 2.2.19 2.08-.85m-31.31-3.17c8.48 4.5 21.73 5.89 31.57 4.47 9.85-1.42 19.66-7.06 27.5-13 7.85-5.95 15.05-13.78 19.59-22.68 4.53-8.9 7.94-20.62 7.63-30.67-.31-10.06-3.86-21.11-9.48-29.66-5.62-8.55-15.37-16.78-24.22-21.64-8.84-4.85-19.07-7.76-28.85-7.5-9.77.26-21.07 4.06-29.81 9.07-8.75 5-17.46 12.1-22.67 20.98-5.2 8.86-8.41 21.8-8.54 32.2-.13 10.39 3.1 21.68 7.79 30.18 4.68 8.5 15.1 16.13 20.3 20.8 5.22 4.69 9.47 6.39 10.92 7.28 1.44.89-2.51-.85-2.24-1.94" opacity=".25" pointer-events="all"/>
  <path fill="none" stroke="#6c8ebf" stroke-linecap="round" stroke-linejoin="round" stroke-miterlimit="10" d="M220.3 123.8c9.39.27 20.88-4.53 29.46-9.7 8.58-5.17 17.34-12.51 22.03-21.34 4.69-8.84 6.6-21.54 6.14-31.68a64.42 64.42 0 0 0-8.96-29.16 67.36 67.36 0 0 0-21.56-21.75C238.9 4.9 227.84.77 217.9.37c-9.93-.42-21.5 2.56-30.11 7.33-8.62 4.76-16.31 12.63-21.58 21.26-5.28 8.62-9.36 20.35-10.08 30.48-.72 10.14 1.7 21.54 5.76 30.34a59.26 59.26 0 0 0 18.6 22.47c7.86 5.75 21.58 9.93 28.48 12 6.9 2.09 10.45.53 12.95.47 2.5-.07 2.2.19 2.08-.85m-31.31-3.17c8.48 4.5 21.73 5.89 31.57 4.47 9.85-1.42 19.66-7.06 27.5-13 7.85-5.95 15.05-13.78 19.59-22.68 4.53-8.9 7.94-20.62 7.63-30.67-.31-10.06-3.86-21.11-9.48-29.66-5.62-8.55-15.37-16.78-24.22-21.64-8.84-4.85-19.07-7.76-28.85-7.5-9.77.26-21.07 4.06-29.81 9.07-8.75 5-17.46 12.1-22.67 20.98-5.2 8.86-8.41 21.8-8.54 32.2-.13 10.39 3.1 21.68 7.79 30.18 4.68 8.5 15.1 16.13 20.3 20.8 5.22 4.69 9.47 6.39 10.92 7.28 1.44.89-2.51-.85-2.24-1.94" pointer-events="all"/>
  <path fill="#f59" d="m230.94 64.13-1.4 1.32v2.12h-1.87V56.44h1.87v6.72l3.89-3.6h2.25l-3.35 3.36 3.66 4.65h-2.28zm-7.71-3.4q.8-1.26 2.85-1.26v1.78q-.24-.04-.44-.04-1.1 0-1.7.64-.62.63-.62 1.83v3.89h-1.88v-8.01h1.79zm-7.83-1.26q1.77 0 2.7.85.94.84.94 2.55v4.7h-1.77v-.98q-.34.53-.99.81-.63.27-1.53.27t-1.57-.3q-.68-.31-1.05-.85-.36-.56-.36-1.25 0-1.08.8-1.72.8-.66 2.53-.66h2.07v-.12q0-.84-.51-1.3-.5-.44-1.49-.44-.67 0-1.33.2-.65.22-1.1.6l-.73-1.37q.63-.48 1.51-.74.89-.25 1.88-.25zm-.26 6.84q.7 0 1.25-.32.55-.33.78-.93v-.93h-1.94q-1.62 0-1.62 1.07 0 .5.4.8.41.3 1.13.3zm-7.3 1.26-.02-6.96-3.45 5.76h-.87l-3.45-5.67v6.87h-1.86v-10.5h1.6l4.18 6.96 4.1-6.96h1.6l.01 10.5z" font-family="Montserrat SemiBold" font-size="15" text-anchor="middle"/>
  <path fill="none" stroke="#000" stroke-linecap="round" stroke-linejoin="round" stroke-miterlimit="10" d="M171.1 305.4s0 0 0 0m0 0s0 0 0 0m-5.51 12.44c5.95-4.92 13.09-12.5 17.06-19.62m-17.06 19.62c4.46-6.27 10.26-12.36 17.06-19.62m-21.91 31.3c12.69-16.42 26.29-29.42 34.1-39.24m-34.1 39.25c13.43-15.73 26.09-31.5 34.1-39.25m-34.36 45.64c15.97-19.56 30.23-36.85 39.36-45.28m-39.36 45.28c13.07-16.17 27.18-30.56 39.36-45.28m-38.97 50.93c12.02-13.03 23.95-27.47 48.55-55.85m-48.55 55.85c15.1-16.98 28.46-31.4 48.55-55.85m-48.15 61.49c17.9-16.87 34.4-38.13 53.14-61.13m-53.14 61.13c18.83-22.05 37.76-44.11 53.14-61.13m-52.75 66.77c11.6-13.16 25.89-30 57.73-66.41m-57.73 66.4c15.43-19.07 31.79-37.82 57.73-66.4m-57.33 72.06c18.97-22.9 36.5-44.2 61.67-70.95m-61.67 70.95c15.79-19.26 33.62-36.75 61.67-70.95m-62.6 78.1c23.75-27.91 46.62-56.3 67.58-77.74m-67.57 77.74c15.78-19.58 32.17-38.27 67.57-77.74m-65.21 81.12c17.69-20.66 37.34-44.04 70.2-80.76m-70.2 80.76c25.26-28.1 50.72-58.2 70.2-80.76m-68.5 84.89c23.57-23 41.9-49.4 74.14-85.28m-74.13 85.28a4485.24 4485.24 0 0 0 74.13-85.28m-71.77 88.66c20.2-26.13 42.97-51.11 74.79-86.04m-74.8 86.04c25.62-29.57 51.25-60.03 74.8-86.04m-72.43 89.42c30.93-33.8 60.08-69.28 76.1-87.55m-76.1 87.55c23.14-28.02 45.78-55.21 76.1-87.55M172.3 383.3c27.33-33.65 55.67-65.42 76.76-88.3m-76.76 88.3c24.84-29.5 51.04-56.77 76.76-88.3M174 387.43c25.55-32.78 55.26-64.34 78.73-90.56M174 387.43c21.84-24.4 43.36-49.04 78.73-90.56m-76.36 93.94c22.75-26.03 42.37-51.44 79.38-91.32m-79.38 91.32c17.63-18.65 34.5-39.75 79.38-91.32m-76.37 93.94c18.4-21.8 37.77-44.75 80.04-92.07m-80.04 92.07c27.24-32.65 54.79-64.9 80.04-92.07m-77.02 94.7c21.83-25.72 44.65-49.18 80.04-92.08m-80.04 92.08c27-31.33 53.4-61.4 80.04-92.08m-76.36 93.95c19.66-25.7 40.29-48.85 79.38-91.32m-79.38 91.32c24.09-27.67 49.05-57.15 79.38-91.32m-75.71 93.19c22.52-23.24 45.99-50.03 78.07-89.81m-78.07 89.8c30.37-35.45 60.03-70.81 78.07-89.8m-74.4 91.68c26.63-33.4 56-65.21 76.1-87.55m-76.1 87.55c20.4-22.38 39.76-45.17 76.1-87.55m-72.42 89.42c16.06-18.97 37.4-42.16 74.79-86.04m-74.8 86.04a3991.56 3991.56 0 0 1 74.8-86.04m-71.77 88.66c19.33-22.33 37.29-44.9 74.14-85.28m-74.14 85.28c29.65-33.97 57.39-67.27 74.14-85.28m-70.46 87.15c26.8-26.92 51.63-54.7 72.16-83.02m-72.16 83.02c14.64-16.2 29.57-34.84 72.16-83.02m-68.5 84.89c26.34-29.35 53.55-58.97 70.87-81.51m-70.86 81.5c14.64-17.16 29-34.5 70.86-81.5m-65.22 81.1c15.44-15.6 29.77-37.06 66.92-76.97M213.1 409.5c13.56-15.16 27.65-33.26 66.92-76.98m-61.27 76.59c18.73-20.03 35.05-40.03 61.67-70.94m-61.67 70.94c17.72-21.24 38.45-43.74 61.67-70.94m-56.03 70.55c13.37-12.14 21.12-25.88 55.77-64.15m-55.77 64.15c13.87-16.1 27.87-33 55.77-64.15m-50.13 63.75C248 388.6 265.14 367 280.56 350.2m-50.52 58.1c10.89-10.67 19.94-22.65 50.52-58.1m-42.9 55.45c18.55-19.61 31.52-37.31 42.64-49.05m-42.64 49.05c12.05-14.3 23.7-27.53 42.64-49.05m-31.75 42.62A221.54 221.54 0 0 1 280.04 363m-31.5 36.23a1004.04 1004.04 0 0 0 31.5-36.23m-20.6 29.8c2.85-4.88 6.07-8 9.18-10.57m-9.18 10.57c1.52-1.81 3.67-4.8 9.18-10.57" opacity=".25" pointer-events="all"/>
  <path fill="none" stroke="#000" stroke-linecap="round" stroke-linejoin="round" stroke-miterlimit="10" d="M207.26 284c9.28-2.8 21.56-.4 30.83 2.89 9.26 3.3 18.16 9.65 24.75 16.9 6.59 7.26 12.2 16.92 14.78 26.63 2.59 9.7 3.4 21.64.75 31.67-2.66 10.02-9.75 21.3-16.7 28.49-6.92 7.19-15.35 11.79-24.9 14.64-9.55 2.84-22.44 4.64-32.4 2.42-9.95-2.22-20.11-8.73-27.33-15.73-7.22-7-12.93-16.65-16-26.28-3.06-9.64-4.03-21.54-2.4-31.53 1.65-10 5.79-20.9 12.23-28.43 6.45-7.54 19.4-13.08 26.46-16.82 7.06-3.74 12.15-5.1 15.86-5.63 3.7-.54 6.39 1.36 6.36 2.39m-21.75 2.84c8.75-3.88 23.04-4.14 32.93-2.47 9.9 1.68 18.8 6.4 26.42 12.52 7.6 6.1 15.6 14.79 19.24 24.2 3.63 9.4 4.09 22.06 2.52 32.23-1.56 10.17-6.2 20.67-11.9 28.78-5.72 8.12-13.26 15.85-22.37 19.9-9.12 4.07-22.41 5.65-32.34 4.45-9.92-1.2-19.38-6-27.22-11.61-7.84-5.61-15.15-13.3-19.81-22.04-4.66-8.74-8.45-20.36-8.13-30.4.33-10.02 4.52-21.24 10.08-29.78 5.56-8.54 17.99-17 23.26-21.45 5.26-4.45 6.86-4.44 8.34-5.23 1.49-.8.04-.7.57.46" opacity=".25" pointer-events="all"/>
  <path fill="none" stroke="#6c8ebf" stroke-linecap="round" stroke-linejoin="round" stroke-miterlimit="10" d="M205.26 281c9.28-2.8 21.56-.4 30.83 2.89 9.26 3.3 18.16 9.65 24.75 16.9 6.59 7.26 12.2 16.92 14.78 26.63 2.59 9.7 3.4 21.64.75 31.67-2.66 10.02-9.75 21.3-16.7 28.49-6.92 7.19-15.35 11.79-24.9 14.64-9.55 2.84-22.44 4.64-32.4 2.42-9.95-2.22-20.11-8.73-27.33-15.73-7.22-7-12.93-16.65-16-26.28-3.06-9.64-4.03-21.54-2.4-31.53 1.65-10 5.79-20.9 12.23-28.43 6.45-7.54 19.4-13.08 26.46-16.82 7.06-3.74 12.15-5.1 15.86-5.63 3.7-.54 6.39 1.36 6.36 2.39m-21.75 2.84c8.75-3.88 23.04-4.14 32.93-2.47 9.9 1.68 18.8 6.4 26.42 12.52 7.6 6.1 15.6 14.79 19.24 24.2 3.63 9.4 4.09 22.06 2.52 32.23-1.56 10.17-6.2 20.67-11.9 28.78-5.72 8.12-13.26 15.85-22.37 19.9-9.12 4.07-22.41 5.65-32.34 4.45-9.92-1.2-19.38-6-27.22-11.61-7.84-5.61-15.15-13.3-19.81-22.04-4.66-8.74-8.45-20.36-8.13-30.4.33-10.02 4.52-21.24 10.08-29.78 5.56-8.54 17.99-17 23.26-21.45 5.26-4.45 6.86-4.44 8.34-5.23 1.49-.8.04-.7.57.46" pointer-events="all"/>
  <path fill="#f59" d="M222.56 348.62q-.53.61-1.23.93-.7.31-1.52.31-1.08 0-1.98-.5-.9-.47-2.05-1.67-1.46-.12-2.61-.84-1.16-.74-1.8-1.9-.65-1.2-.65-2.63 0-1.53.74-2.76.73-1.25 2.02-1.94 1.3-.7 2.9-.7 1.6 0 2.9.7 1.28.7 2.02 1.92.73 1.23.73 2.78 0 1.24-.5 2.3-.49 1.06-1.37 1.8-.89.74-2.06 1.07.44.47.86.68.42.2.9.2 1.03 0 1.8-.83zm-9.87-6.3q0 1.05.48 1.9.48.84 1.32 1.32.84.47 1.89.47 1.05 0 1.89-.47.84-.48 1.32-1.32.48-.85.48-1.9 0-1.05-.48-1.9-.48-.85-1.32-1.31-.84-.48-1.9-.48-1.04 0-1.88.48-.84.46-1.32 1.32-.48.84-.48 1.89z" font-family="Montserrat SemiBold" font-size="15" text-anchor="middle"/>
  <g transform="translate(1.88 3.07)">
    <circle cx="380" cy="200" r="60" fill="none" opacity=".25" pointer-events="all" transform="matrix(-1 0 0 1 762 3)"/>
    <circle cx="380" cy="200" r="60" fill="none" pointer-events="all" transform="matrix(-1 0 0 1 760 0)"/>
    <path fill="none" stroke="#000" stroke-linecap="round" stroke-linejoin="round" stroke-miterlimit="10" d="M428.14 163.65s0 0 0 0m0 0s0 0 0 0m6.82 13.94c-6.67-6.16-13.43-15.63-21-24.15m21 24.15c-6.35-9.28-15.28-17.46-21-24.15m27.16 37.34c-11.31-10.69-21.29-25.57-38.05-43.77m38.05 43.77c-10.84-13.58-22.45-26.38-38.05-43.77m37.66 49.41c-9.98-11.42-17.15-22.03-43.3-49.81m43.3 49.81c-10.26-11.55-20.16-23.59-43.3-49.81m43.56 56.21c-13.21-17.38-27.19-33.44-49.86-57.36m49.86 57.36c-16.12-20.09-34.3-39.68-49.86-57.36m49.47 63c-18.54-18.52-36.19-37.74-55.77-64.15m55.77 64.15c-21.37-22.8-41.09-46.43-55.77-64.15m55.37 69.8c-19.62-23.24-39.3-47.14-61.01-70.19m61.01 70.19c-16.27-16.54-29.81-34.07-61.01-70.19m60.62 75.83c-14.75-14.89-26.56-33.54-66.92-76.98m66.92 76.98c-13.09-15.81-27.4-32.82-66.92-76.98m64.55 80.36c-18.02-23.12-38.66-46.01-68.88-79.24m68.88 79.24c-23.68-28.81-48.15-57.4-68.88-79.24m67.18 83.37c-19.93-22.43-37.78-42.36-71.51-82.26m71.51 82.26c-19.12-23.37-38.08-45.32-71.51-82.26m69.14 85.64c-27.91-29.25-50.47-57.88-72.82-83.77m72.82 83.77a4545.73 4545.73 0 0 1-72.82-83.77m70.46 87.15c-23.94-28.81-48.44-55.41-74.13-85.28m74.13 85.28c-14.59-16.71-28.74-34.17-74.13-85.28m72.42 89.42c-15.79-21.77-37.21-39.7-75.44-86.8m75.44 86.8c-21.61-27.24-43.8-51.23-75.44-86.8m73.08 90.17c-26.04-30.51-51.05-57.82-76.76-88.3m76.76 88.3a6749.3 6749.3 0 0 1-76.76-88.3m74.4 91.68c-26.83-29.86-50.57-59.61-77.42-89.05m77.42 89.05c-28.83-32.33-57.85-65.61-77.42-89.05m75.71 93.19c-26.78-31.25-54.34-61.99-79.38-91.32m79.38 91.32c-18.96-23.31-39-46.33-79.38-91.32m75.71 93.19c-23.93-28.5-51.5-59.2-78.73-90.57m78.73 90.57c-31.2-35.36-61.57-71.42-78.73-90.57m75.05 92.44c-23.74-25.47-43.44-49.07-78.72-90.57m78.72 90.57a3086.34 3086.34 0 0 1-78.72-90.57m75.05 92.44c-15.92-18.68-32.66-39.11-77.42-89.06m77.42 89.06c-18.15-20.56-37.63-42.58-77.42-89.06m73.74 90.92c-30.11-34.02-59.87-71.17-75.44-86.79m75.44 86.79c-29.5-33.45-58.36-66.15-75.44-86.79m71.77 88.66c-23.25-26.79-46.66-53.34-74.14-85.28m74.14 85.28c-21.07-25.41-42.9-50.58-74.14-85.28m71.12 87.91c-17.18-20.63-34.36-42.38-72.82-83.77m72.82 83.77c-25.49-29.65-50.58-57.21-72.82-83.77m69.14 85.64c-28.86-31.77-53.89-64-71.51-82.27m71.51 82.27c-15.63-18.77-32.76-36.4-71.51-82.27m67.84 84.14c-19.39-20.56-39.56-45.2-70.2-80.76m70.2 80.76c-16.48-19.37-33.63-40.59-70.2-80.76m64.56 80.36c-23.61-24.52-46.06-53.58-66.27-76.22m66.27 76.22c-14.08-15.97-29.51-33.32-66.27-76.22m61.28 76.58c-14.68-15.22-26.98-31.66-63.64-73.2m63.64 73.2c-13.6-15.89-26.54-30.75-63.64-73.2m58 72.81c-23.24-24.63-45.21-49.96-57.74-66.42m57.74 66.42c-20.8-24.69-42.44-48.42-57.74-66.42m52.75 66.78c-16.51-18.93-34.12-38.41-52.49-60.38m52.49 60.38c-15.25-16.92-29.71-33.48-52.49-60.38m45.53 58.47c-17.75-20.03-34.84-41.48-45.26-52.07m45.26 52.07c-9.63-12.05-20.38-24.14-45.26-52.07m34.37 45.64c-11.31-14.54-23.41-29.7-34.77-40m34.77 40c-13.39-15.24-25.22-30.55-34.77-40m23.88 33.57c-9.89-12.01-17.37-20.85-23.62-27.17m23.62 27.17c-7.71-8.4-14.15-16.16-23.62-27.17" opacity=".25" pointer-events="all"/>
    <path fill="none" stroke="#000" stroke-linecap="round" stroke-linejoin="round" stroke-miterlimit="10" d="M361.78 145.71c-9.17 2.23-17.45 8.41-24.12 15.73-6.67 7.31-13.43 18.35-15.92 28.16-2.48 9.81-1.85 21.12 1 30.68a65.7 65.7 0 0 0 16.1 26.7 66.48 66.48 0 0 0 26.97 15.63 61.22 61.22 0 0 0 30.13.52c9.66-2.32 20.48-7.52 27.84-14.49 7.36-6.96 13.34-17.63 16.31-27.29a64.22 64.22 0 0 0 1.5-30.69c-2.01-9.64-7.34-19.77-13.55-27.12a60.86 60.86 0 0 0-23.68-17.01c-9.04-3.6-22.59-4.74-30.57-4.57-7.97.17-13.84 4.15-17.27 5.6-3.43 1.45-3.67 2.15-3.31 3.11m55.97-2.05c-8.17-5.1-20.31-6.6-30.06-6.42-9.75.17-19.9 2.22-28.45 7.47-8.54 5.26-17.9 15.21-22.82 24.05-4.93 8.84-6.77 19.09-6.72 28.98.05 9.89 2.51 21.44 7 30.37 4.5 8.94 11.43 18.12 19.96 23.24 8.53 5.12 21.14 7.32 31.22 7.49 10.08.16 20.65-2.13 29.27-6.52 8.61-4.39 16.68-11.87 22.4-19.82 5.72-7.95 10.84-18.16 11.92-27.88 1.08-9.72-1.67-21.01-5.46-30.42s-12.66-20.65-17.28-26.04c-4.61-5.38-8.51-5.79-10.41-6.27-1.89-.48-.45 2.39-.96 3.41" opacity=".25" pointer-events="all"/>
    <path fill="none" stroke="#b85450" stroke-linecap="round" stroke-linejoin="round" stroke-miterlimit="10" d="M359.78 142.71c-9.17 2.23-17.45 8.41-24.12 15.73-6.67 7.31-13.43 18.35-15.92 28.16-2.48 9.81-1.85 21.12 1 30.68a65.7 65.7 0 0 0 16.1 26.7 66.48 66.48 0 0 0 26.97 15.63 61.22 61.22 0 0 0 30.13.52c9.66-2.32 20.48-7.52 27.84-14.49 7.36-6.96 13.34-17.63 16.31-27.29a64.22 64.22 0 0 0 1.5-30.69c-2.01-9.64-7.34-19.77-13.55-27.12a60.86 60.86 0 0 0-23.68-17.01c-9.04-3.6-22.59-4.74-30.57-4.57-7.97.17-13.84 4.15-17.27 5.6-3.43 1.45-3.67 2.15-3.31 3.11m55.97-2.05c-8.17-5.1-20.31-6.6-30.06-6.42-9.75.17-19.9 2.22-28.45 7.47-8.54 5.26-17.9 15.21-22.82 24.05-4.93 8.84-6.77 19.09-6.72 28.98.05 9.89 2.51 21.44 7 30.37 4.5 8.94 11.43 18.12 19.96 23.24 8.53 5.12 21.14 7.32 31.22 7.49 10.08.16 20.65-2.13 29.27-6.52 8.61-4.39 16.68-11.87 22.4-19.82 5.72-7.95 10.84-18.16 11.92-27.88 1.08-9.72-1.67-21.01-5.46-30.42s-12.66-20.65-17.28-26.04c-4.61-5.38-8.51-5.79-10.41-6.27-1.89-.48-.45 2.39-.96 3.41" pointer-events="all"/>
    <path fill="#f59" d="M397.76 200.54q0 .2-.03.56h-6.28q.16.88.85 1.4.7.51 1.74.51 1.32 0 2.18-.87l1 1.16q-.54.64-1.36.97-.83.33-1.86.33-1.32 0-2.33-.52-1-.53-1.56-1.46-.54-.94-.54-2.13 0-1.17.53-2.1.54-.94 1.48-1.47.95-.52 2.13-.52 1.17 0 2.09.52.93.51 1.44 1.46.52.93.52 2.16zm-4.05-2.64q-.9 0-1.53.54-.61.53-.75 1.41h4.55q-.12-.87-.74-1.41-.61-.54-1.53-.54zm-9.42 3.17-1.4 1.32v2.11h-1.87v-11.13h1.88v6.72l3.88-3.6h2.25l-3.34 3.36 3.66 4.65h-2.28zm-5.73-4.58v8.01h-1.78v-1.02q-.45.54-1.13.84-.67.28-1.45.28-1.6 0-2.54-.88-.91-.9-.91-2.65v-4.58h1.87v4.32q0 1.08.48 1.62.5.53 1.4.53 1 0 1.59-.62.6-.63.6-1.8v-4.05zM362.08 194h1.95v8.85h5.49v1.65h-7.44z" font-family="Montserrat SemiBold" font-size="15" text-anchor="middle"/>
  </g>
  <g fill="none" stroke-linecap="round" stroke-linejoin="round" stroke-miterlimit="10">
    <path stroke="#000" d="M158.88 66.07c-62.53-1.44-93.08 26.06-95 73.63m95-73.63c-63.2-.85-96.93 25.32-95 73.63" opacity=".25" pointer-events="stroke"/>
    <path stroke="#82b366" d="M156.88 63.07c-62.53-1.44-93.08 26.06-95 73.63m95-73.63c-63.2-.85-96.93 25.32-95 73.63" pointer-events="stroke"/>
    <path stroke="#82b366" d="M61.88 141.95c-1.12-1.71-2.1-4.8-3.5-7m3.5 7c-.52-1.78-2.1-3.54-3.5-7m0 0c1.08.28 2.04.48 3.5 1.75m-3.5-1.75c.98.52 2.4 1.02 3.5 1.75m0 0c.82-.67 1.8-.51 3.5-1.75m-3.5 1.75c.76-.43 1.8-.8 3.5-1.75m0 0c-1.75 2.04-2.11 5.38-3.5 7m3.5-7c-.54 1.1-1.7 2.73-3.5 7" pointer-events="all"/>
  </g>
  <g fill="none" stroke-linecap="round" stroke-linejoin="round" stroke-miterlimit="10">
    <path stroke="#000" d="M278.88 66.07c70.8-1.1 105.32 24.92 105 73.63m-105-73.63c68.94 1.09 106.7 22.37 105 73.63" opacity=".25" pointer-events="stroke"/>
    <path stroke="#82b366" d="M276.88 63.07c70.8-1.1 105.32 24.92 105 73.63m-105-73.63c68.94 1.09 106.7 22.37 105 73.63" pointer-events="stroke"/>
    <path stroke="#82b366" d="M381.88 141.95c-1.22-2.56-1.3-3.23-3.5-7m3.5 7c-.91-2-2.24-3.7-3.5-7m0 0c1.27.5 2.83 1.32 3.5 1.75m-3.5-1.75c.9.4 1.8.8 3.5 1.75m0 0c1.4-.45 2.02-.86 3.5-1.75m-3.5 1.75c1.28-.7 2.3-1.05 3.5-1.75m0 0c-.78 2.1-1.9 2.54-3.5 7m3.5-7a46.45 46.45 0 0 0-3.5 7" pointer-events="all"/>
  </g>
  <g fill="none" stroke-linecap="round" stroke-linejoin="round" stroke-miterlimit="10">
    <path stroke="#000" d="M278.88 346.07c70.8-.76 103.73-25.31 105-73.63m-105 73.63c67.75-1.58 105.74-25.06 105-73.63" opacity=".25" pointer-events="stroke"/>
    <path stroke="#9673a6" d="M276.88 343.07c70.8-.76 103.73-25.31 105-73.63m-105 73.63c67.75-1.58 105.74-25.06 105-73.63" pointer-events="stroke"/>
    <path stroke="#9673a6" d="M381.88 264.19c.86 1.64 1.82 5.04 3.5 7m-3.5-7c.98 2.03 1.9 4.08 3.5 7m0 0c-1.27-.57-2.37-1.55-3.5-1.75m3.5 1.75c-1.06-.33-2-1.05-3.5-1.75m0 0c-1 .22-1.74.67-3.5 1.75m3.5-1.75c-1.26.58-2.36 1.06-3.5 1.75m0 0c.45-2.55 2.25-3.77 3.5-7m-3.5 7c.98-1.58 1.73-3.34 3.5-7" pointer-events="all"/>
  </g>
  <g fill="none" stroke-linecap="round" stroke-linejoin="round" stroke-miterlimit="10">
    <path stroke="#000" d="M158.88 346.07c-62.43.44-95.54-23.9-95-73.63m95 73.63c-64.98 1.54-95.68-26.68-95-73.63" opacity=".25" pointer-events="stroke"/>
    <path stroke="#9673a6" d="M156.88 343.07c-62.43.44-95.54-23.9-95-73.63m95 73.63c-64.98 1.54-95.68-26.68-95-73.63" pointer-events="stroke"/>
    <path stroke="#9673a6" d="M61.88 264.19c.1 1.53 2.02 2.94 3.5 7m-3.5-7a39.88 39.88 0 0 1 3.5 7m0 0c-.85-.4-2.48-1.37-3.5-1.75m3.5 1.75c-1.1-.5-1.82-.94-3.5-1.75m0 0c-1.05.33-2.28 1.37-3.5 1.75m3.5-1.75a25.01 25.01 0 0 1-3.5 1.75m0 0c.67-1.7 2.33-2.6 3.5-7m-3.5 7c.99-2.17 2.09-4.3 3.5-7" pointer-events="all"/>
  </g>
  <path fill="#f59" d="M255.66 226.42q-.97 0-1.9-.25-.93-.26-1.49-.65l.72-1.42q.54.36 1.3.58.76.21 1.5.21 1.67 0 1.67-.88 0-.42-.43-.59-.42-.16-1.37-.31-.99-.15-1.62-.35-.61-.2-1.08-.67-.45-.5-.45-1.37 0-1.14.95-1.81.96-.7 2.58-.7.82 0 1.65.2.82.18 1.35.5l-.72 1.42q-1.02-.6-2.3-.6-.82 0-1.26.26-.42.24-.42.64 0 .45.45.65.47.18 1.43.34.96.15 1.57.35.62.2 1.05.66.45.46.45 1.32 0 1.12-.97 1.8-.98.67-2.66.67zm-6.8-8.11h1.87v8h-1.88zm.94-1.32q-.51 0-.86-.32-.34-.33-.34-.8 0-.49.34-.8.35-.33.86-.33.5 0 .85.31.35.3.35.77 0 .5-.35.84-.33.33-.85.33zm-6.2 9.43q-.97 0-1.9-.25-.93-.26-1.49-.65l.72-1.42q.54.36 1.3.58.76.21 1.5.21 1.67 0 1.67-.88 0-.42-.43-.59-.42-.16-1.37-.31-.99-.15-1.62-.35-.61-.2-1.08-.67-.45-.5-.45-1.37 0-1.14.95-1.81.96-.7 2.58-.7.82 0 1.65.2.82.18 1.35.5l-.72 1.42q-1.02-.6-2.3-.6-.82 0-1.26.26-.42.24-.42.64 0 .45.45.65.47.18 1.43.34.96.15 1.57.35.62.2 1.05.66.45.46.45 1.32 0 1.12-.97 1.8-.98.67-2.66.67zm-4.27-4.06q0 .2-.03.55H233q.17.89.86 1.41.7.51 1.74.51 1.32 0 2.17-.87l1 1.16q-.53.64-1.36.97-.82.33-1.86.33-1.32 0-2.32-.52-1-.53-1.56-1.46-.54-.94-.54-2.13 0-1.17.52-2.1.54-.94 1.49-1.47.94-.52 2.13-.52 1.17 0 2.08.52.93.51 1.44 1.46.53.93.53 2.16zm-4.05-2.64q-.9 0-1.53.54-.62.52-.75 1.4h4.54q-.12-.86-.73-1.4-.62-.54-1.53-.54zm-9.29-1.5q1.52 0 2.43.88.92.89.92 2.63v4.59h-1.88v-4.35q0-1.05-.5-1.58-.49-.54-1.4-.54-1.04 0-1.64.63-.6.62-.6 1.79v4.05h-1.87v-11.13h1.87v4.05q.47-.5 1.14-.75.7-.27 1.53-.27zm-6.09 7.66q-.33.27-.8.4-.47.14-1 .14-1.32 0-2.04-.69t-.72-2v-3.86h-1.32v-1.5h1.32v-1.83h1.88v1.83h2.14v1.5h-2.14v3.8q0 .6.28.9.29.3.83.3.63 0 1.05-.32zm-10.89.54q-1.21 0-2.19-.52-.97-.53-1.53-1.46-.54-.94-.54-2.13 0-1.18.54-2.11.56-.93 1.53-1.46.98-.52 2.2-.52 1.22 0 2.2.52.97.53 1.51 1.46.56.93.56 2.11 0 1.19-.56 2.13-.54.93-1.51 1.46-.98.52-2.2.52zm0-1.6q1.04 0 1.71-.7.68-.68.68-1.8 0-1.13-.68-1.82-.67-.7-1.7-.7-1.04 0-1.72.7-.66.69-.66 1.81 0 1.13.66 1.82.68.69 1.71.69zm-9.45-6.6q1.17 0 2.09.5.93.52 1.45 1.45.53.93.53 2.14 0 1.22-.53 2.16-.52.93-1.45 1.44-.92.51-2.09.51-1.62 0-2.56-1.08v3.89h-1.88V218.3h1.79v1.05q.46-.57 1.14-.86.69-.28 1.51-.28zm-.2 6.6q1.03 0 1.69-.7.67-.68.67-1.8 0-1.13-.67-1.82-.66-.7-1.7-.7-.67 0-1.21.32-.54.3-.86.87-.31.57-.31 1.32 0 .75.31 1.32.32.57.86.89.54.3 1.21.3zm-5.4-6.51-3.76 8.65q-.52 1.3-1.27 1.83-.75.54-1.82.54-.6 0-1.18-.2-.59-.19-.96-.53l.75-1.38q.27.25.63.4.37.15.75.15.5 0 .8-.25.34-.26.6-.86l.14-.31-3.5-8.04h1.96l2.52 5.92 2.53-5.92zm-10.15-2.5v10.5h-1.95v-4.5h-5.43v4.5h-1.95v-10.5h1.95v4.34h5.43v-4.33zm76.65-12.2q0 .2-.03.55h-6.28q.16.89.85 1.41.7.51 1.74.51 1.32 0 2.18-.87l1 1.16q-.54.64-1.36.97-.83.33-1.86.33-1.32 0-2.33-.52-1-.53-1.56-1.46-.54-.94-.54-2.13 0-1.17.53-2.1.54-.94 1.48-1.47.95-.52 2.13-.52 1.17 0 2.09.52.93.51 1.44 1.46.52.93.52 2.16zm-4.05-2.64q-.9 0-1.53.54-.61.52-.75 1.4h4.55q-.12-.86-.74-1.4-.61-.54-1.53-.54zm-8.4 6.7q-1.24 0-2.23-.52-1-.53-1.55-1.46-.55-.94-.55-2.13 0-1.18.55-2.11.56-.93 1.53-1.46 1-.52 2.25-.52 1.19 0 2.07.48.9.48 1.35 1.38l-1.44.84q-.34-.56-.87-.83-.5-.28-1.12-.28-1.05 0-1.74.69-.7.67-.7 1.81 0 1.14.68 1.83.7.68 1.76.68.61 0 1.12-.27.53-.29.87-.84l1.44.84q-.46.9-1.36 1.4-.89.47-2.06.47zm-8.04-6.94q.81-1.26 2.85-1.26v1.78q-.24-.04-.43-.04-1.1 0-1.71.64-.62.63-.62 1.83v3.89h-1.87v-8.01h1.78zm-4.24-1.17v8h-1.79v-1.01q-.45.54-1.12.84-.68.28-1.46.28-1.6 0-2.53-.88-.92-.9-.92-2.66v-4.57h1.88v4.32q0 1.08.48 1.62.5.52 1.4.52 1 0 1.58-.61.6-.63.6-1.8v-4.05zm-13.83 8.11q-1.22 0-2.2-.52-.97-.53-1.52-1.46-.54-.94-.54-2.13 0-1.18.54-2.11.55-.93 1.53-1.46.97-.52 2.19-.52 1.23 0 2.2.52.98.53 1.52 1.46.55.93.55 2.11 0 1.19-.55 2.13-.54.93-1.52 1.46-.97.52-2.2.52zm0-1.6q1.03 0 1.7-.7.68-.68.68-1.8 0-1.13-.67-1.82-.68-.7-1.71-.7-1.04 0-1.71.7-.66.69-.66 1.81 0 1.13.66 1.82.67.69 1.7.69zm-9.6 1.65q-1.22 0-2.36-.35-1.12-.34-1.78-.91l.67-1.52q.65.51 1.58.84.94.32 1.89.32 1.17 0 1.74-.38.58-.37.58-.99 0-.45-.33-.73-.31-.3-.8-.47-.5-.16-1.36-.37-1.2-.29-1.95-.57-.73-.29-1.27-.89-.53-.61-.53-1.65 0-.87.47-1.57.48-.72 1.42-1.14.96-.42 2.34-.42.96 0 1.9.24.92.24 1.6.69l-.62 1.51q-.69-.4-1.44-.61-.75-.21-1.45-.21-1.16 0-1.73.39-.55.39-.55 1.03 0 .45.31.74.33.28.83.45.5.16 1.35.37 1.17.27 1.92.57.75.29 1.27.89.54.6.54 1.62 0 .87-.48 1.57-.46.7-1.42 1.13-.96.42-2.34.42zm-13.65-.05q-1.22 0-2.2-.52-.97-.53-1.52-1.46-.54-.94-.54-2.13 0-1.18.54-2.11.55-.93 1.53-1.46.97-.52 2.19-.52 1.23 0 2.2.52.98.53 1.52 1.46.55.93.55 2.11 0 1.19-.55 2.13-.54.93-1.52 1.46-.97.52-2.2.52zm0-1.6q1.03 0 1.7-.7.68-.68.68-1.8 0-1.13-.67-1.82-.68-.7-1.71-.7-1.04 0-1.71.7-.66.69-.66 1.81 0 1.13.66 1.82.67.69 1.7.69zm-4.67-6.51-2.95 8h-1.8l-2.07-5.51-2.1 5.52h-1.8l-2.94-8.01h1.77l2.11 5.9 2.2-5.9h1.58l2.16 5.94 2.18-5.94zm-18.72-.84h-3.48v-1.65h8.91v1.65h-3.48v8.85h-1.95z" font-family="Montserrat SemiBold" font-size="15" text-anchor="middle"/>
</svg>
